# xmcd CD database file
#
# Track frame offsets:
#	150
#	18777
#	46155
#	60957
#	80550
#	95500
#	112100
#	124720
#	141135
#
# Disc length: 2130 seconds
#
# Revision: 0
# Processed by: cddbd v1.5.2PL0 Copyright (c) Steve Scherf et al.
# Submitted via: CDex 1.50
#
DISCID=6c085009
DTITLE=Red Mitchell - Virtuoso
DYEAR=1982
DGENRE=Jazz
TTITLE0=I'll Remember April
TTITLE1=What's New
TTITLE2=Life's a Take
TTITLE3=Autumn Leaves
TTITLE4=Days of Wine and Roses
TTITLE5=Embraceable You
TTITLE6=My Funny Valentine
TTITLE7=Act Varmeland du Schone
TTITLE8=You'd be so Nice to Come Home to
EXTD=YEAR: 1982
EXTT0=
EXTT1=
EXTT2=
EXTT3=
EXTT4=
EXTT5=
EXTT6=
EXTT7=
EXTT8=
PLAYORDER=
